<svg xmlns="http://www.w3.org/2000/svg" viewBox="0 0 200 200" width="200" height="200">
  <defs>
    <radialGradient id="bb-body" cx="50%" cy="42%" r="56%">
      <stop offset="0%" stop-color="#7B8DD8"/>
      <stop offset="55%" stop-color="#4D61C4"/>
      <stop offset="100%" stop-color="#2E3A85"/>
    </radialGradient>
    <radialGradient id="bb-rim" cx="50%" cy="50%" r="50%">
      <stop offset="80%" stop-color="#394891" stop-opacity="0"/>
      <stop offset="93%" stop-color="#1A2156" stop-opacity=".55"/>
      <stop offset="100%" stop-color="#1A2156" stop-opacity="0"/>
    </radialGradient>
    <radialGradient id="bb-hole" cx="50%" cy="35%" r="60%">
      <stop offset="0%" stop-color="#1A2156"/>
      <stop offset="60%" stop-color="#0F1535"/>
      <stop offset="100%" stop-color="#06092A"/>
    </radialGradient>
    <radialGradient id="bb-shine" cx="35%" cy="28%" r="40%">
      <stop offset="0%" stop-color="#FFFFFF" stop-opacity=".55"/>
      <stop offset="60%" stop-color="#FFFFFF" stop-opacity=".06"/>
      <stop offset="100%" stop-color="#FFFFFF" stop-opacity="0"/>
    </radialGradient>
    <filter id="bb-shadow" x="-20%" y="-20%" width="140%" height="140%">
      <feGaussianBlur stdDeviation="5"/>
    </filter>
  </defs>
  <ellipse cx="102" cy="172" rx="78" ry="14" fill="#0F1535" opacity=".28" filter="url(#bb-shadow)"/>
  <circle cx="100" cy="100" r="88" fill="url(#bb-body)"/>
  <circle cx="100" cy="100" r="88" fill="url(#bb-rim)"/>
  <circle cx="100" cy="100" r="72" fill="none" stroke="#2E3A85" stroke-width="2" opacity=".45"/>
  <circle cx="100" cy="100" r="64" fill="none" stroke="#7B8DD8" stroke-width="1.2" opacity=".55"/>
  <g opacity=".95">
    <circle cx="76" cy="78" r="10" fill="url(#bb-hole)"/>
    <circle cx="124" cy="78" r="10" fill="url(#bb-hole)"/>
    <circle cx="76" cy="124" r="10" fill="url(#bb-hole)"/>
    <circle cx="124" cy="124" r="10" fill="url(#bb-hole)"/>
    <circle cx="74" cy="76" r="3" fill="#5A6BC8" opacity=".7"/>
    <circle cx="122" cy="76" r="3" fill="#5A6BC8" opacity=".7"/>
    <circle cx="74" cy="122" r="3" fill="#5A6BC8" opacity=".7"/>
    <circle cx="122" cy="122" r="3" fill="#5A6BC8" opacity=".7"/>
  </g>
  <path d="M76 78 L124 124" stroke="#FFD556" stroke-width="2.6" stroke-linecap="round" opacity=".82"/>
  <path d="M124 78 L76 124" stroke="#FFD556" stroke-width="2.6" stroke-linecap="round" opacity=".82"/>
  <ellipse cx="78" cy="68" rx="38" ry="22" fill="url(#bb-shine)"/>
</svg>
